<svg
  xmlns="http://www.w3.org/2000/svg"
  xmlns:xlink="http://www.w3.org/1999/xlink"
  viewBox="0 0 18 18"
>
  <path
    d="M1.264,8.044l1.577.408a.354.354,0,0,0,.472-.235A5.752,5.752,0,0,1,8.042,4.45V5.969c0,.382.28.538.622.348l4.955-2.77c.342-.191.342-.5,0-.7L8.664.082c-.342-.192-.622-.035-.622.347V2.038a8.222,8.222,0,0,0-7.1,5.5s-.184.375.325.506"
    fill="currentColor"
  />
  <path
    d="M10.4,16.071a.356.356,0,0,0-.446-.279,5.893,5.893,0,0,1-5.735-2.081l1.359-.76c.342-.191.342-.5,0-.7L.622,9.487C.28,9.3,0,9.452,0,9.835v5.539c0,.382.28.538.622.348l1.439-.8a8.4,8.4,0,0,0,8.471,3.206s.427-.033.291-.526Z"
    transform="translate(0 -0.299)"
    fill="currentColor"
  />
  <path
    d="M17.743,14.3l-1.439-.8a7.809,7.809,0,0,0-1.369-8.7s-.242-.342-.615.018L13.167,5.924a.336.336,0,0,0-.026.513,5.468,5.468,0,0,1,1.006,5.849l-1.359-.76c-.342-.191-.622-.034-.622.348v5.539c0,.383.28.539.622.349l4.955-2.77c.342-.191.342-.5,0-.7"
    transform="translate(0 -0.147)"
    fill="currentColor"
  />
</svg>
