<svg
  xmlns="http://www.w3.org/2000/svg"
  xmlns:xlink="http://www.w3.org/1999/xlink"
  viewBox="0 0 18 20"
>
  <path
    d="M9,0C5.657,0,0,.587,0,2.786V17.213c0,.035,0,.07,0,.1,0,.019.009.035.012.054l0,.015a1.263,1.263,0,0,0,.193.521,1.921,1.921,0,0,0,.406.443C2.177,19.624,6.327,20,9,20s6.823-.376,8.381-1.65a1.9,1.9,0,0,0,.407-.443,1.267,1.267,0,0,0,.193-.522l0-.014c0-.019.01-.035.011-.054s0-.069,0-.1V2.786C18,.587,12.343,0,9,0M9,.521c4.231,0,7.66.868,7.66,1.94S13.231,4.4,9,4.4s-7.661-.868-7.661-1.94S4.769.521,9,.521"
    fill="currentColor"
  />
</svg>
